Zila Ghaziabad 2013 Hindi Movies DVDScr New Source Sample Included ~ rDX

Screen Shots :
 
http://myimghosting.serveftp.com/13/ZilaGhaziabadDS.html
 
http://myimghost.cwahi.net/ZilaGhaziabadDS.html


Format                                   : AVI
Format/Info                              : Audio Video Interleave
File size                                : 675 MiB
Duration                                 : 2h 20mn
Overall bit rate                         : 669 Kbps
Writing library                          : MPlayer

Video
ID                                       : 0
Format                                   : MPEG-4 Visual
Format profile                           : Advanced Simple@L5
Format settings, BVOP                    : 2
Format settings, QPel                    : No
Format settings, GMC                     : No warppoints
Format settings, Matrix                  : Default (H.263)
Codec ID                                 : XVID
Codec ID/Hint                            : XviD
Duration                                 : 2h 20mn
Bit rate                                 : 472 Kbps
Width                                    : 640 pixels
Height                                   : 256 pixels
Display aspect ratio                     : 2.500
Frame rate                               : 23.976 fps
Color space                              : YUV
Chroma subsampling                       : 4:2:0
Bit depth                                : 8 bits
Scan type                                : Progressive
Compression mode                         : Lossy
Bits/(Pixel*Frame)                       : 0.120
Stream size                              : 476 MiB (71%)
Writing library                          : XviD 1.2.1 (UTC 2008-12-04)

Audio
ID                                       : 1
Format                                   : AC-3
Format/Info                              : Audio Coding 3
Mode extension                           : CM (complete main)
Format settings, Endianness              : Big
Codec ID                                 : 2000
Duration                                 : 2h 20mn
Bit rate mode                            : Constant
Bit rate                                 : 192 Kbps
Channel(s)                               : 2 channels
Channel positions                        : Front: L R
Sampling rate                            : 48.0 KHz
Bit depth                                : 16 bits
Compression mode                         : Lossy
Stream size                              : 194 MiB (29%)
Alignment                                : Split accross interleaves
Interleave, duration                     : 500 ms (11.99 video frames)
Interleave, preload duration             : 500 ms